<?xml version="1.0" encoding="UTF-8"?>
<!DOCTYPE svg PUBLIC "-//W3C//DTD SVG 1.1//EN" "http://www.w3.org/Graphics/SVG/1.1/DTD/svg11.dtd">
<svg version="1.1" xmlns="http://www.w3.org/2000/svg" xmlns:xlink="http://www.w3.org/1999/xlink" x="0" y="0" width="286" height="505" viewBox="0, 0, 286, 505">
  <g id="Layer_1">
    <g>
      <path d="M138.625,45 L136.605,499.4 L170.95,503.035 L154.788,1.375 L154.788,1.375 z" fill="#1A1A1A"/>
      <path d="M143.315,500.02 L137.958,45.38 L137.958,45.38 L132.244,499.67 L132.244,499.67 z" fill="#949494" fill-opacity="0.965"/>
      <path d="M59.585,81.54 L53.524,148.21 L53.524,154.21 L59.585,87.54 z" fill="#000000"/>
      <path d="M53.525,148.21 L247.475,148.21 L247.475,154.21 L53.525,154.21 z" fill="#666666"/>
      <path d="M247.475,148.21 L283.84,97.702 L283.84,103.702 L247.475,154.21 z" fill="#4D4D4D"/>
      <path d="M283.845,97.7 L283.845,97.7 L283.845,103.7 L283.845,103.7 z" fill="#000000"/>
      <path d="M283.845,97.7 L229.297,57.294 L229.297,63.294 L283.845,103.7 z" fill="#000000"/>
      <path d="M59.585,81.54 L53.524,148.21 L247.474,148.21 L283.839,97.702 L283.839,97.702 L229.291,57.296 z" fill="#000000"/>
      <g>
        <path d="M234.15,177.299 L55.58,167.299 L55.58,173.299 L234.15,183.299 z" fill="#000000"/>
        <path d="M55.58,167.299 L1.294,223.013 L1.294,229.013 L55.58,173.299 z" fill="#000000"/>
        <path d="M1.29,223.009 L65.576,271.58 L65.576,277.58 L1.29,229.009 z" fill="#999999"/>
        <path d="M65.58,271.579 L65.58,271.579 L65.58,277.579 L65.58,277.579 z" fill="#000000"/>
        <path d="M65.58,271.579 L245.58,255.865 L245.58,261.865 L65.58,277.579 z" fill="#666666"/>
        <path d="M245.58,255.869 L245.58,255.869 L245.58,261.869 L245.58,261.869 z" fill="#000000"/>
        <path d="M234.15,177.299 L55.58,167.299 L1.294,223.013 L65.58,271.584 L65.58,271.584 L245.58,255.87 L245.58,255.87 z" fill="#000000"/>
      </g>
    </g>
  </g>
</svg>
